<svg width="29" height="32" viewBox="0 0 29 32" fill="none" xmlns="http://www.w3.org/2000/svg">
<g filter="url(#filter0_d_81_418)">
<path fill-rule="evenodd" clip-rule="evenodd" d="M14.2134 12.2553C17.5976 12.2553 20.3411 9.51187 20.3411 6.12766C20.3411 2.74345 17.5976 0 14.2134 0C10.8292 0 8.08577 2.74345 8.08577 6.12766C8.08577 9.51187 10.8292 12.2553 14.2134 12.2553ZM14.2134 10.4899C11.8042 10.4899 9.85117 8.53687 9.85117 6.12766C9.85117 3.71845 11.8042 1.7654 14.2134 1.7654C16.6226 1.7654 18.5757 3.71845 18.5757 6.12766C18.5757 8.53687 16.6226 10.4899 14.2134 10.4899ZM23.6481 20.0919C24.1614 21.331 24.4255 22.659 24.4255 24.0002H22.782C22.782 22.8748 22.5604 21.7605 22.1297 20.7209C21.6991 19.6812 21.0679 18.7365 20.2721 17.9408C19.4764 17.1451 18.5317 16.5139 17.4921 16.0832C16.4524 15.6526 15.3381 15.4309 14.2128 15.4309C13.0874 15.4309 11.9731 15.6526 10.9335 16.0832C9.89379 16.5139 8.94912 17.1451 8.15339 17.9408C7.35766 18.7365 6.72646 19.6812 6.29581 20.7209C5.86517 21.7605 5.64352 22.8748 5.64352 24.0002H4C4 22.659 4.26416 21.331 4.7774 20.0919C5.29064 18.8528 6.04291 17.727 6.99125 16.7786C7.93959 15.8303 9.06544 15.078 10.3045 14.5648C11.5436 14.0516 12.8716 13.7874 14.2128 13.7874C15.5539 13.7874 16.882 14.0516 18.121 14.5648C19.3601 15.078 20.4859 15.8303 21.4343 16.7786C22.3826 17.727 23.1349 18.8528 23.6481 20.0919Z" fill="white"/>
</g>
<defs>
<filter id="filter0_d_81_418" x="0" y="0" width="28.4258" height="32" filterUnits="userSpaceOnUse" color-interpolation-filters="sRGB">
<feFlood flood-opacity="0" result="BackgroundImageFix"/>
<feColorMatrix in="SourceAlpha" type="matrix" values="0 0 0 0 0 0 0 0 0 0 0 0 0 0 0 0 0 0 127 0" result="hardAlpha"/>
<feOffset dy="4"/>
<feGaussianBlur stdDeviation="2"/>
<feComposite in2="hardAlpha" operator="out"/>
<feColorMatrix type="matrix" values="0 0 0 0 0 0 0 0 0 0 0 0 0 0 0 0 0 0 0.25 0"/>
<feBlend mode="normal" in2="BackgroundImageFix" result="effect1_dropShadow_81_418"/>
<feBlend mode="normal" in="SourceGraphic" in2="effect1_dropShadow_81_418" result="shape"/>
</filter>
</defs>
</svg>
