<svg width="25" height="21" viewBox="0 0 25 21" fill="none" xmlns="http://www.w3.org/2000/svg">
<path d="M11.5301 0.0873452C11.2809 0.167278 10.6038 0.675087 5.95832 4.25326C3.04782 6.49138 0.579308 8.41447 0.466462 8.51792C-0.422204 9.38307 0.0244798 10.8877 1.25168 11.1416C1.50089 11.1933 1.7736 11.1698 2.13565 11.0617L2.23909 11.0335L2.2532 15.2323L2.2673 19.4358L2.37545 19.6991C2.5071 20.0283 2.84094 20.3762 3.18418 20.5361L3.44279 20.6583L7.1197 20.6724L10.8013 20.6865L10.8107 17.0049L10.8248 13.3233L12.0097 13.3092L13.1993 13.2998L13.2087 16.9767L13.2228 20.6583H16.8668C20.5014 20.6583 20.5108 20.6583 20.7318 20.5549C21.028 20.4185 21.3619 20.1035 21.5123 19.812L21.6393 19.5769L21.6534 15.2793L21.6628 10.9864L21.7709 11.0193C22.3681 11.2074 22.4997 11.2168 22.9041 11.1134C24.0326 10.8172 24.4369 9.35486 23.6141 8.55083C23.5201 8.46149 22.4574 7.62455 21.249 6.69356L19.0532 4.99617L19.0297 3.09658L19.0062 1.1923L18.8839 0.928992C18.7241 0.58575 18.4326 0.298932 18.094 0.143768C17.7461 -0.0207993 17.1912 -0.0302031 16.8574 0.120259C16.5612 0.251913 16.2273 0.571645 16.0769 0.863165C15.9593 1.07945 15.9499 1.14998 15.9358 1.81766C15.9217 2.37719 15.9029 2.53235 15.8559 2.51825C15.8277 2.50414 15.1553 2.00103 14.3701 1.39448C12.7197 0.124961 12.7761 0.167278 12.447 0.0685375C12.1226 -0.0302031 11.8781 -0.0207993 11.5301 0.0873452ZM14.7039 3.46804L17.3135 5.48046L17.337 3.49155C17.3511 2.4007 17.3746 1.48852 17.3934 1.47442C17.4122 1.45561 17.4593 1.45091 17.5016 1.46501C17.5627 1.49322 17.5721 1.74713 17.5721 3.58559V5.67795L20.0876 7.61514C22.5232 9.48651 22.8007 9.72631 22.5232 9.72631C22.4762 9.72631 21.9449 9.34546 21.3478 8.87996L20.2522 8.03832L20.2428 13.6195L20.2287 19.2007L17.4451 19.2148L14.6569 19.2242V15.5567V11.8892H12.0238H9.39073V15.5567V19.2242L6.56017 19.2148L3.7249 19.2007L3.70139 13.6618L3.67788 8.12765L2.64346 8.92698C2.07452 9.36426 1.57612 9.72161 1.5385 9.71221C1.50089 9.7075 1.46797 9.66519 1.46797 9.61817C1.46797 9.52413 11.9016 1.45561 12.0238 1.45561C12.0614 1.45561 13.2698 2.35838 14.7039 3.46804Z" fill="white"/>
</svg>
