<svg width="35" height="34" viewBox="0 0 35 34" fill="none" xmlns="http://www.w3.org/2000/svg">
<g filter="url(#filter0_d_81_538)">
<ellipse cx="17.9577" cy="12.8265" rx="13.0437" ry="12.8265" fill="url(#paint0_linear_81_538)"/>
</g>
<g filter="url(#filter1_d_81_538)">
<ellipse cx="27.3696" cy="6.1713" rx="1.32271" ry="1.31193" fill="#444444"/>
</g>
<g filter="url(#filter2_d_81_538)">
<path d="M20.4953 20.7797C8.78581 15.095 12.0534 7.15734 23.5654 12.0694L27.449 14.5688C30.5876 13.8049 31.4262 15.5992 26.0781 22.288C20.7299 28.9768 20.4953 20.7797 20.4953 20.7797Z" fill="#444444"/>
</g>
<g filter="url(#filter3_d_81_538)">
<ellipse cx="7.97506" cy="10.9838" rx="1.32271" ry="1.31193" fill="#444444"/>
</g>
<g filter="url(#filter4_d_81_538)">
<ellipse cx="15.0224" cy="8.35802" rx="0.88181" ry="0.874617" fill="#444444"/>
</g>
<g filter="url(#filter5_d_81_538)">
<ellipse cx="27.3701" cy="11.858" rx="0.88181" ry="0.874617" fill="#444444"/>
</g>
<g filter="url(#filter6_d_81_538)">
<ellipse cx="14.1404" cy="3.54961" rx="0.441201" ry="0.437309" fill="#444444"/>
</g>
<g filter="url(#filter7_d_81_538)">
<ellipse cx="24.281" cy="3.54961" rx="0.441201" ry="0.437309" fill="#444444"/>
</g>
<g filter="url(#filter8_d_81_538)">
<ellipse cx="25.16" cy="6.60918" rx="0.441201" ry="0.437309" fill="#444444"/>
</g>
<g filter="url(#filter9_d_81_538)">
<ellipse cx="28.0292" cy="10.7646" rx="0.220601" ry="0.218654" fill="#444444"/>
</g>
<g filter="url(#filter10_d_81_538)">
<ellipse cx="21.8552" cy="4.64172" rx="1.98407" ry="1.96789" fill="#444444"/>
</g>
<g filter="url(#filter11_d_81_538)">
<path d="M11.2922 7.7297C11.0389 9.10869 10.1325 7.1059 9.56573 6.66691C9.00662 6.33843 9.13932 5.66941 9.37691 5.32733C9.6145 4.98525 11.0137 4.66071 11.5839 5.36051C11.8079 5.82207 11.6547 6.81325 11.2922 7.7297Z" fill="#444444"/>
</g>
<g filter="url(#filter12_d_81_538)">
<path d="M20.1086 12.1027C19.8553 13.4817 18.9489 11.479 18.3821 11.04C17.823 10.7115 17.9557 10.0425 18.1933 9.70038C18.4309 9.3583 19.8301 9.03376 20.4003 9.73356C20.6243 10.1951 20.4711 11.1863 20.1086 12.1027Z" fill="#444444"/>
</g>
<g filter="url(#filter13_d_81_538)">
<path d="M23.1985 7.29318C22.9452 8.67217 22.0387 6.66938 21.472 6.23039C20.9129 5.9019 21.0456 5.23288 21.2832 4.89081C21.5207 4.54873 22.92 4.22419 23.4902 4.92399C23.7142 5.38555 23.5609 6.37673 23.1985 7.29318Z" fill="#444444"/>
</g>
<g filter="url(#filter14_d_81_538)">
<path d="M21.6099 15.9261C20.408 15.1888 22.6187 15.0829 23.2377 14.7198C23.7501 14.3234 24.3297 14.6902 24.564 15.0345C24.7984 15.3787 24.5922 16.7892 23.7272 17.0603C23.2122 17.0986 22.3378 16.5953 21.6099 15.9261Z" fill="#444444"/>
</g>
<g filter="url(#filter15_d_81_538)">
<path d="M13.2613 5.29668C13.2613 5.44923 13.1825 5.58354 13.063 5.66179C12.9934 5.70742 12.9099 5.73399 12.8201 5.73399C12.5764 5.73399 12.3789 5.5382 12.3789 5.29668C12.3789 5.05516 12.5764 4.85938 12.8201 4.85938C12.8582 4.85938 12.8952 4.86416 12.9304 4.87315C13.1207 4.9217 13.2613 5.09292 13.2613 5.29668Z" fill="#444444"/>
</g>
<g filter="url(#filter16_d_81_538)">
<path d="M23.4978 17.8167C23.3545 17.761 23.2572 17.6392 23.2273 17.5004C23.2098 17.4194 23.2153 17.3326 23.2481 17.2498C23.337 17.0249 23.5929 16.9142 23.8198 17.0024C24.0466 17.0906 24.1584 17.3444 24.0695 17.5693C24.0556 17.6044 24.0376 17.6368 24.0163 17.666C23.9013 17.8239 23.6892 17.8911 23.4978 17.8167Z" fill="#444444"/>
</g>
<path d="M4 11.8076L13.6999 9.62107" stroke="white" stroke-opacity="0.5" stroke-width="0.2" stroke-linecap="round" stroke-dasharray="0.4 0.4"/>
<path d="M5.32422 10.9326L27.8104 4.8103" stroke="white" stroke-opacity="0.5" stroke-width="0.2" stroke-linecap="round" stroke-dasharray="0.4 0.4"/>
<path d="M6.21094 12.2441L28.6971 6.12182" stroke="white" stroke-opacity="0.5" stroke-width="0.2" stroke-linecap="round" stroke-dasharray="0.4 0.4"/>
<path d="M6.65234 13.1191L29.1385 6.99682" stroke="white" stroke-opacity="0.5" stroke-width="0.2" stroke-linecap="round" stroke-dasharray="0.4 0.4"/>
<path d="M7.08203 13.9932L29.5682 7.87084" stroke="white" stroke-opacity="0.5" stroke-width="0.2" stroke-linecap="round" stroke-dasharray="0.4 0.4"/>
<path d="M7.52344 14.8682L30.0096 8.74584" stroke="white" stroke-opacity="0.5" stroke-width="0.2" stroke-linecap="round" stroke-dasharray="0.4 0.4"/>
<path d="M5.32422 10.0576L26.9296 3.9391" stroke="white" stroke-opacity="0.5" stroke-width="0.2" stroke-linecap="round" stroke-dasharray="0.4 0.4"/>
<path d="M5.75781 9.18359L26.0394 3.49858" stroke="white" stroke-opacity="0.5" stroke-width="0.2" stroke-linecap="round" stroke-dasharray="0.4 0.4"/>
<path d="M9.28906 10.5459L15.0208 9.23397" stroke="white" stroke-opacity="0.5" stroke-width="0.2" stroke-linecap="round" stroke-dasharray="0.4 0.4"/>
<path d="M16.6908 8.75107C16.6355 8.99172 16.5079 9.212 16.3247 9.38077L16.3246 9.38074L16.0299 8.43625L16.03 8.43619C16.2773 8.47295 16.5081 8.58338 16.6908 8.75107Z" fill="black"/>
<path d="M14.3836 8.90565L15.1737 8.59668L15.1738 8.59671L15.4795 8.47716C15.6634 8.42074 15.8505 8.40887 16.0289 8.43536L16.0289 8.43541L16.3233 9.37964L16.3234 9.37967C16.1912 9.50146 16.03 9.59641 15.8461 9.65283L15.5257 9.72531L14.6976 9.9127L14.6191 9.661L14.5406 9.40922L14.4621 9.15744L14.3836 8.90565ZM15.5834 9.42998C15.7566 9.37691 15.8535 9.19458 15.7999 9.02287C15.7464 8.85113 15.5626 8.75494 15.3895 8.80809C15.2163 8.86116 15.1194 9.04348 15.1729 9.2152C15.2265 9.38694 15.4103 9.48313 15.5834 9.42998Z" fill="#1063AF"/>
<path d="M15.535 9.729C15.4096 9.98825 15.1797 10.197 14.8809 10.2886C14.7891 10.3167 14.6965 10.3321 14.6048 10.3357L14.7065 9.9163L15.535 9.729Z" fill="#1063AF"/>
<path d="M15.7985 9.02539C15.8522 9.19716 15.7552 9.37951 15.582 9.43256C15.4088 9.4857 15.2248 9.38946 15.1713 9.21767C15.1177 9.04591 15.2146 8.86356 15.3879 8.8105C15.5611 8.75737 15.745 8.8536 15.7985 9.02539Z" fill="#B6E2DC"/>
<path d="M14.7044 9.91581L14.4363 9.88032C14.3626 9.87059 14.3013 9.81922 14.2794 9.74875L14.2612 9.69043L14.6259 9.66404L14.7044 9.91581Z" fill="black"/>
<path d="M14.6179 9.66242L14.2532 9.68881L14.2531 9.68878L14.1989 9.51492L14.5393 9.41057L14.6179 9.66242Z" fill="black"/>
<path d="M15.1787 8.5976L14.3882 8.90651L14.0654 8.61735C14.1432 8.56903 14.2284 8.52993 14.3201 8.50177C14.619 8.41016 14.9275 8.45375 15.1787 8.5976Z" fill="#1063AF"/>
<path d="M14.5429 9.41087L14.2025 9.51522L14.1483 9.3413L14.4644 9.15902L14.5429 9.41087Z" fill="black"/>
<path d="M14.4646 9.15895L14.1486 9.34124L14.1303 9.28288C14.1084 9.21241 14.1297 9.13578 14.1849 9.08647L14.386 8.9071L14.4646 9.15895Z" fill="black"/>
<path d="M13.6548 9.46042C13.6404 9.45289 13.6289 9.43992 13.6237 9.4233C13.6133 9.39005 13.6321 9.35476 13.6656 9.34448L13.842 9.29042C13.8755 9.28015 13.9111 9.29878 13.9215 9.33202C13.9319 9.36527 13.9131 9.40056 13.8796 9.41084L13.7032 9.4649C13.6865 9.47003 13.6692 9.46795 13.6548 9.46042Z" fill="#BB2323"/>
<path d="M13.3213 9.83295C13.3069 9.82542 13.2955 9.81245 13.2903 9.79582C13.2799 9.76257 13.2987 9.72729 13.3322 9.71701L13.92 9.53687C13.9535 9.5266 13.9891 9.54522 13.9995 9.57847C14.0099 9.61172 13.9911 9.647 13.9576 9.65728L13.3697 9.83742C13.353 9.84257 13.3357 9.84048 13.3213 9.83295Z" fill="#BB2323"/>
<path d="M13.6962 9.99179C13.6818 9.98426 13.6704 9.97129 13.6652 9.95467C13.6548 9.92142 13.6736 9.88613 13.7071 9.87585L14.001 9.78577C14.0345 9.77549 14.0701 9.79412 14.0805 9.82736C14.0908 9.86061 14.0721 9.8959 14.0385 9.90618L13.7447 9.99626C13.7279 10.0014 13.7106 9.99931 13.6962 9.99179Z" fill="#BB2323"/>
<path d="M14.6823 9.97144C14.6679 9.96391 14.6565 9.95095 14.6513 9.93432L14.337 8.92699C14.3266 8.89375 14.3453 8.85846 14.3789 8.84817C14.4124 8.8379 14.448 8.85653 14.4584 8.88977L14.7727 9.89711C14.7831 9.93036 14.7643 9.96564 14.7308 9.97593C14.714 9.98106 14.6967 9.97897 14.6823 9.97144Z" fill="#BB2323"/>
<path d="M15.3052 9.46441C15.2126 9.41596 15.1446 9.33466 15.1137 9.23548C15.0827 9.13635 15.0926 9.03118 15.1414 8.93937C15.1903 8.84756 15.2722 8.78013 15.3722 8.7495C15.4722 8.71883 15.5782 8.72862 15.6708 8.77708C15.7634 8.82553 15.8315 8.90683 15.8624 9.006C15.8933 9.10513 15.8835 9.2103 15.8347 9.30211C15.7858 9.39391 15.7039 9.46134 15.6039 9.49197C15.6039 9.49198 15.6039 9.49198 15.6039 9.49198C15.5039 9.52265 15.3978 9.51286 15.3052 9.46441ZM15.6116 8.88855C15.549 8.85581 15.4773 8.8492 15.4098 8.86992C15.3422 8.89062 15.2868 8.93618 15.2538 8.9982C15.2209 9.06023 15.2142 9.13129 15.2351 9.19827C15.256 9.26529 15.302 9.32022 15.3645 9.35295C15.4271 9.38569 15.4988 9.39231 15.5663 9.37158C15.5663 9.37158 15.5663 9.37158 15.5663 9.37157C15.6339 9.35089 15.6892 9.30533 15.7222 9.2433C15.7552 9.18127 15.7619 9.11022 15.741 9.04324C15.7201 8.97621 15.6741 8.92129 15.6116 8.88855Z" fill="#BB2323"/>
<path d="M14.1256 9.39819C14.1155 9.39286 14.1066 9.38474 14.1004 9.37415C14.0828 9.34407 14.0931 9.30549 14.1234 9.288L14.4394 9.10571C14.4698 9.08822 14.5087 9.09842 14.5263 9.12851C14.544 9.1586 14.5337 9.19717 14.5034 9.21466L14.1873 9.39695C14.1677 9.40829 14.1444 9.40799 14.1256 9.39819Z" fill="#BB2323"/>
<path d="M14.1841 9.57083C14.1697 9.5633 14.1582 9.55033 14.153 9.53371C14.1426 9.50046 14.1614 9.46517 14.1949 9.45489L14.5353 9.35054C14.5689 9.34026 14.6045 9.35889 14.6148 9.39213C14.6252 9.42538 14.6064 9.46067 14.5729 9.47095L14.2325 9.5753C14.2157 9.58045 14.1985 9.57836 14.1841 9.57083Z" fill="#BB2323"/>
<path d="M14.2308 9.74737C14.2121 9.73756 14.1987 9.71869 14.197 9.69619C14.1945 9.66148 14.2208 9.63129 14.2558 9.62876L14.6204 9.60237C14.6554 9.59982 14.6859 9.62592 14.6885 9.66063C14.691 9.69534 14.6647 9.72553 14.6297 9.72807L14.265 9.75445C14.2527 9.75534 14.241 9.75269 14.2308 9.74737Z" fill="#BB2323"/>
<path d="M15.1501 8.65447C15.1371 8.64769 15.1265 8.63644 15.1207 8.62186C15.1078 8.58948 15.1238 8.55289 15.1565 8.54012L15.4623 8.42059C15.4949 8.40783 15.5318 8.42372 15.5447 8.45611C15.5576 8.48849 15.5416 8.52508 15.5089 8.53784L15.2031 8.65738C15.1852 8.66439 15.1659 8.66275 15.1501 8.65447Z" fill="#BB2323"/>
<path d="M14.3423 9.91643C14.2836 9.8857 14.238 9.83271 14.2177 9.7678L14.2003 9.71176C14.2 9.711 14.1997 9.71025 14.1995 9.70949L14.0728 9.3034C14.0436 9.20973 14.0722 9.10696 14.1456 9.04149L14.3467 8.8621C14.3523 8.85708 14.3588 8.85309 14.3659 8.85034L15.1563 8.54142C15.189 8.52867 15.2259 8.54457 15.2388 8.57694C15.2516 8.60933 15.2356 8.64592 15.203 8.65868L14.4232 8.96342L14.2306 9.13519C14.1939 9.16793 14.1796 9.21935 14.1942 9.26618L14.3202 9.67004C14.3205 9.67079 14.3207 9.67154 14.321 9.67231L14.3392 9.73063C14.3538 9.77747 14.3948 9.81187 14.4438 9.81834L14.7005 9.85233L15.8383 9.5951C15.8725 9.58736 15.9066 9.60861 15.9144 9.64253C15.9222 9.67646 15.9008 9.71024 15.8666 9.71798L14.7177 9.97772C14.7103 9.97939 14.7026 9.97975 14.6951 9.97875L14.427 9.94325C14.3969 9.93929 14.3683 9.93004 14.3423 9.91643Z" fill="#BB2323"/>
<path d="M15.827 9.7102C15.8126 9.70268 15.8011 9.6897 15.7959 9.67308C15.7855 9.63983 15.8043 9.60454 15.8378 9.59426C16.0085 9.54193 16.1609 9.45476 16.2908 9.33514C16.4561 9.1829 16.5727 8.98929 16.6294 8.77332C16.4596 8.62682 16.2531 8.53223 16.0299 8.49906C15.8546 8.47301 15.6791 8.48634 15.5084 8.53867C15.4749 8.54894 15.4393 8.53033 15.4289 8.49707C15.4186 8.46382 15.4373 8.42854 15.4709 8.41825C15.66 8.36029 15.8544 8.34554 16.0487 8.37442C16.3095 8.41318 16.5497 8.52762 16.7434 8.7054C16.76 8.72071 16.7672 8.74368 16.7621 8.76564C16.7035 9.02076 16.5705 9.24963 16.3773 9.42751C16.2333 9.5601 16.0645 9.65671 15.8754 9.71468C15.8586 9.71981 15.8413 9.71773 15.827 9.7102Z" fill="#BB2323"/>
<path d="M16.2994 9.43791C16.285 9.43038 16.2736 9.41741 16.2684 9.40079L15.9737 8.45629C15.9633 8.42304 15.9821 8.38775 16.0156 8.37747C16.0491 8.3672 16.0847 8.38583 16.0951 8.41907L16.3898 9.36357C16.4002 9.39682 16.3814 9.4321 16.3479 9.44239C16.3311 9.44752 16.3138 9.44544 16.2994 9.43791Z" fill="#BB2323"/>
<path d="M14.3579 8.96343C14.3532 8.96098 14.3488 8.95794 14.3449 8.95442L14.0221 8.66526C14.0073 8.65202 13.9996 8.63266 14.0014 8.613C14.0031 8.59332 14.014 8.57559 14.0309 8.56511C14.1144 8.5132 14.2051 8.47203 14.3005 8.44273C14.6034 8.34988 14.9348 8.38672 15.2094 8.54404C15.2391 8.56081 15.2502 8.59802 15.2342 8.62818C15.2178 8.65895 15.1794 8.67075 15.1483 8.65451L15.1483 8.65448C15.1476 8.65411 15.1468 8.65372 15.1461 8.65332C14.902 8.51344 14.6074 8.48059 14.3381 8.56313C14.2807 8.58075 14.2253 8.6032 14.1724 8.63014L14.429 8.86001C14.4509 8.87877 14.4578 8.91065 14.4437 8.93709C14.4273 8.96787 14.3889 8.97968 14.3579 8.96343Z" fill="#BB2323"/>
<path d="M14.5666 10.3907C14.5592 10.3868 14.5526 10.3815 14.5471 10.3749C14.5345 10.3596 14.5298 10.3394 14.5345 10.3202L14.6362 9.90077C14.6444 9.86693 14.6787 9.84611 14.7128 9.85427C14.7469 9.86239 14.7679 9.89644 14.7597 9.93028L14.6786 10.265C14.7375 10.2577 14.7961 10.2452 14.8535 10.2276C15.1228 10.1451 15.3471 9.9531 15.4691 9.70095C15.4843 9.66957 15.5222 9.65635 15.5539 9.6714C15.5855 9.68631 15.5989 9.72411 15.5837 9.75548C15.4465 10.0392 15.194 10.2551 14.8911 10.348C14.7956 10.3772 14.6973 10.394 14.5988 10.3979C14.5875 10.3983 14.5764 10.3958 14.5666 10.3907Z" fill="#BB2323"/>
<defs>
<filter id="filter0_d_81_538" x="0.914062" y="0" width="34.0859" height="33.6533" filterUnits="userSpaceOnUse" color-interpolation-filters="sRGB">
<feFlood flood-opacity="0" result="BackgroundImageFix"/>
<feColorMatrix in="SourceAlpha" type="matrix" values="0 0 0 0 0 0 0 0 0 0 0 0 0 0 0 0 0 0 127 0" result="hardAlpha"/>
<feOffset dy="4"/>
<feGaussianBlur stdDeviation="2"/>
<feComposite in2="hardAlpha" operator="out"/>
<feColorMatrix type="matrix" values="0 0 0 0 0 0 0 0 0 0 0 0 0 0 0 0 0 0 0.25 0"/>
<feBlend mode="normal" in2="BackgroundImageFix" result="effect1_dropShadow_81_538"/>
<feBlend mode="normal" in="SourceGraphic" in2="effect1_dropShadow_81_538" result="shape"/>
</filter>
<filter id="filter1_d_81_538" x="22.0469" y="4.85938" width="10.6445" height="10.624" filterUnits="userSpaceOnUse" color-interpolation-filters="sRGB">
<feFlood flood-opacity="0" result="BackgroundImageFix"/>
<feColorMatrix in="SourceAlpha" type="matrix" values="0 0 0 0 0 0 0 0 0 0 0 0 0 0 0 0 0 0 127 0" result="hardAlpha"/>
<feOffset dy="4"/>
<feGaussianBlur stdDeviation="2"/>
<feComposite in2="hardAlpha" operator="out"/>
<feColorMatrix type="matrix" values="0 0 0 0 0 0 0 0 0 0 0 0 0 0 0 0 0 0 0.25 0"/>
<feBlend mode="normal" in2="BackgroundImageFix" result="effect1_dropShadow_81_538"/>
<feBlend mode="normal" in="SourceGraphic" in2="effect1_dropShadow_81_538" result="shape"/>
</filter>
<filter id="filter2_d_81_538" x="9.16406" y="10.5322" width="24.7852" height="22.3818" filterUnits="userSpaceOnUse" color-interpolation-filters="sRGB">
<feFlood flood-opacity="0" result="BackgroundImageFix"/>
<feColorMatrix in="SourceAlpha" type="matrix" values="0 0 0 0 0 0 0 0 0 0 0 0 0 0 0 0 0 0 127 0" result="hardAlpha"/>
<feOffset dy="4"/>
<feGaussianBlur stdDeviation="2"/>
<feComposite in2="hardAlpha" operator="out"/>
<feColorMatrix type="matrix" values="0 0 0 0 0 0 0 0 0 0 0 0 0 0 0 0 0 0 0.25 0"/>
<feBlend mode="normal" in2="BackgroundImageFix" result="effect1_dropShadow_81_538"/>
<feBlend mode="normal" in="SourceGraphic" in2="effect1_dropShadow_81_538" result="shape"/>
</filter>
<filter id="filter3_d_81_538" x="2.65234" y="9.67188" width="10.6445" height="10.624" filterUnits="userSpaceOnUse" color-interpolation-filters="sRGB">
<feFlood flood-opacity="0" result="BackgroundImageFix"/>
<feColorMatrix in="SourceAlpha" type="matrix" values="0 0 0 0 0 0 0 0 0 0 0 0 0 0 0 0 0 0 127 0" result="hardAlpha"/>
<feOffset dy="4"/>
<feGaussianBlur stdDeviation="2"/>
<feComposite in2="hardAlpha" operator="out"/>
<feColorMatrix type="matrix" values="0 0 0 0 0 0 0 0 0 0 0 0 0 0 0 0 0 0 0.25 0"/>
<feBlend mode="normal" in2="BackgroundImageFix" result="effect1_dropShadow_81_538"/>
<feBlend mode="normal" in="SourceGraphic" in2="effect1_dropShadow_81_538" result="shape"/>
</filter>
<filter id="filter4_d_81_538" x="10.1406" y="7.4834" width="9.76172" height="9.74902" filterUnits="userSpaceOnUse" color-interpolation-filters="sRGB">
<feFlood flood-opacity="0" result="BackgroundImageFix"/>
<feColorMatrix in="SourceAlpha" type="matrix" values="0 0 0 0 0 0 0 0 0 0 0 0 0 0 0 0 0 0 127 0" result="hardAlpha"/>
<feOffset dy="4"/>
<feGaussianBlur stdDeviation="2"/>
<feComposite in2="hardAlpha" operator="out"/>
<feColorMatrix type="matrix" values="0 0 0 0 0 0 0 0 0 0 0 0 0 0 0 0 0 0 0.25 0"/>
<feBlend mode="normal" in2="BackgroundImageFix" result="effect1_dropShadow_81_538"/>
<feBlend mode="normal" in="SourceGraphic" in2="effect1_dropShadow_81_538" result="shape"/>
</filter>
<filter id="filter5_d_81_538" x="22.4883" y="10.9834" width="9.76172" height="9.74902" filterUnits="userSpaceOnUse" color-interpolation-filters="sRGB">
<feFlood flood-opacity="0" result="BackgroundImageFix"/>
<feColorMatrix in="SourceAlpha" type="matrix" values="0 0 0 0 0 0 0 0 0 0 0 0 0 0 0 0 0 0 127 0" result="hardAlpha"/>
<feOffset dy="4"/>
<feGaussianBlur stdDeviation="2"/>
<feComposite in2="hardAlpha" operator="out"/>
<feColorMatrix type="matrix" values="0 0 0 0 0 0 0 0 0 0 0 0 0 0 0 0 0 0 0.25 0"/>
<feBlend mode="normal" in2="BackgroundImageFix" result="effect1_dropShadow_81_538"/>
<feBlend mode="normal" in="SourceGraphic" in2="effect1_dropShadow_81_538" result="shape"/>
</filter>
<filter id="filter6_d_81_538" x="9.69922" y="3.1123" width="8.88281" height="8.875" filterUnits="userSpaceOnUse" color-interpolation-filters="sRGB">
<feFlood flood-opacity="0" result="BackgroundImageFix"/>
<feColorMatrix in="SourceAlpha" type="matrix" values="0 0 0 0 0 0 0 0 0 0 0 0 0 0 0 0 0 0 127 0" result="hardAlpha"/>
<feOffset dy="4"/>
<feGaussianBlur stdDeviation="2"/>
<feComposite in2="hardAlpha" operator="out"/>
<feColorMatrix type="matrix" values="0 0 0 0 0 0 0 0 0 0 0 0 0 0 0 0 0 0 0.25 0"/>
<feBlend mode="normal" in2="BackgroundImageFix" result="effect1_dropShadow_81_538"/>
<feBlend mode="normal" in="SourceGraphic" in2="effect1_dropShadow_81_538" result="shape"/>
</filter>
<filter id="filter7_d_81_538" x="19.8398" y="3.1123" width="8.88281" height="8.875" filterUnits="userSpaceOnUse" color-interpolation-filters="sRGB">
<feFlood flood-opacity="0" result="BackgroundImageFix"/>
<feColorMatrix in="SourceAlpha" type="matrix" values="0 0 0 0 0 0 0 0 0 0 0 0 0 0 0 0 0 0 127 0" result="hardAlpha"/>
<feOffset dy="4"/>
<feGaussianBlur stdDeviation="2"/>
<feComposite in2="hardAlpha" operator="out"/>
<feColorMatrix type="matrix" values="0 0 0 0 0 0 0 0 0 0 0 0 0 0 0 0 0 0 0.25 0"/>
<feBlend mode="normal" in2="BackgroundImageFix" result="effect1_dropShadow_81_538"/>
<feBlend mode="normal" in="SourceGraphic" in2="effect1_dropShadow_81_538" result="shape"/>
</filter>
<filter id="filter8_d_81_538" x="20.7188" y="6.17188" width="8.88281" height="8.875" filterUnits="userSpaceOnUse" color-interpolation-filters="sRGB">
<feFlood flood-opacity="0" result="BackgroundImageFix"/>
<feColorMatrix in="SourceAlpha" type="matrix" values="0 0 0 0 0 0 0 0 0 0 0 0 0 0 0 0 0 0 127 0" result="hardAlpha"/>
<feOffset dy="4"/>
<feGaussianBlur stdDeviation="2"/>
<feComposite in2="hardAlpha" operator="out"/>
<feColorMatrix type="matrix" values="0 0 0 0 0 0 0 0 0 0 0 0 0 0 0 0 0 0 0.25 0"/>
<feBlend mode="normal" in2="BackgroundImageFix" result="effect1_dropShadow_81_538"/>
<feBlend mode="normal" in="SourceGraphic" in2="effect1_dropShadow_81_538" result="shape"/>
</filter>
<filter id="filter9_d_81_538" x="23.8086" y="10.5459" width="8.44141" height="8.4375" filterUnits="userSpaceOnUse" color-interpolation-filters="sRGB">
<feFlood flood-opacity="0" result="BackgroundImageFix"/>
<feColorMatrix in="SourceAlpha" type="matrix" values="0 0 0 0 0 0 0 0 0 0 0 0 0 0 0 0 0 0 127 0" result="hardAlpha"/>
<feOffset dy="4"/>
<feGaussianBlur stdDeviation="2"/>
<feComposite in2="hardAlpha" operator="out"/>
<feColorMatrix type="matrix" values="0 0 0 0 0 0 0 0 0 0 0 0 0 0 0 0 0 0 0.25 0"/>
<feBlend mode="normal" in2="BackgroundImageFix" result="effect1_dropShadow_81_538"/>
<feBlend mode="normal" in="SourceGraphic" in2="effect1_dropShadow_81_538" result="shape"/>
</filter>
<filter id="filter10_d_81_538" x="15.8711" y="2.67383" width="11.9688" height="11.9355" filterUnits="userSpaceOnUse" color-interpolation-filters="sRGB">
<feFlood flood-opacity="0" result="BackgroundImageFix"/>
<feColorMatrix in="SourceAlpha" type="matrix" values="0 0 0 0 0 0 0 0 0 0 0 0 0 0 0 0 0 0 127 0" result="hardAlpha"/>
<feOffset dy="4"/>
<feGaussianBlur stdDeviation="2"/>
<feComposite in2="hardAlpha" operator="out"/>
<feColorMatrix type="matrix" values="0 0 0 0 0 0 0 0 0 0 0 0 0 0 0 0 0 0 0.25 0"/>
<feBlend mode="normal" in2="BackgroundImageFix" result="effect1_dropShadow_81_538"/>
<feBlend mode="normal" in="SourceGraphic" in2="effect1_dropShadow_81_538" result="shape"/>
</filter>
<filter id="filter11_d_81_538" x="5.17188" y="4.94629" width="10.5156" height="11.2607" filterUnits="userSpaceOnUse" color-interpolation-filters="sRGB">
<feFlood flood-opacity="0" result="BackgroundImageFix"/>
<feColorMatrix in="SourceAlpha" type="matrix" values="0 0 0 0 0 0 0 0 0 0 0 0 0 0 0 0 0 0 127 0" result="hardAlpha"/>
<feOffset dy="4"/>
<feGaussianBlur stdDeviation="2"/>
<feComposite in2="hardAlpha" operator="out"/>
<feColorMatrix type="matrix" values="0 0 0 0 0 0 0 0 0 0 0 0 0 0 0 0 0 0 0.25 0"/>
<feBlend mode="normal" in2="BackgroundImageFix" result="effect1_dropShadow_81_538"/>
<feBlend mode="normal" in="SourceGraphic" in2="effect1_dropShadow_81_538" result="shape"/>
</filter>
<filter id="filter12_d_81_538" x="13.9883" y="9.31934" width="10.5156" height="11.2607" filterUnits="userSpaceOnUse" color-interpolation-filters="sRGB">
<feFlood flood-opacity="0" result="BackgroundImageFix"/>
<feColorMatrix in="SourceAlpha" type="matrix" values="0 0 0 0 0 0 0 0 0 0 0 0 0 0 0 0 0 0 127 0" result="hardAlpha"/>
<feOffset dy="4"/>
<feGaussianBlur stdDeviation="2"/>
<feComposite in2="hardAlpha" operator="out"/>
<feColorMatrix type="matrix" values="0 0 0 0 0 0 0 0 0 0 0 0 0 0 0 0 0 0 0.25 0"/>
<feBlend mode="normal" in2="BackgroundImageFix" result="effect1_dropShadow_81_538"/>
<feBlend mode="normal" in="SourceGraphic" in2="effect1_dropShadow_81_538" result="shape"/>
</filter>
<filter id="filter13_d_81_538" x="17.0781" y="4.50977" width="10.5156" height="11.2607" filterUnits="userSpaceOnUse" color-interpolation-filters="sRGB">
<feFlood flood-opacity="0" result="BackgroundImageFix"/>
<feColorMatrix in="SourceAlpha" type="matrix" values="0 0 0 0 0 0 0 0 0 0 0 0 0 0 0 0 0 0 127 0" result="hardAlpha"/>
<feOffset dy="4"/>
<feGaussianBlur stdDeviation="2"/>
<feComposite in2="hardAlpha" operator="out"/>
<feColorMatrix type="matrix" values="0 0 0 0 0 0 0 0 0 0 0 0 0 0 0 0 0 0 0.25 0"/>
<feBlend mode="normal" in2="BackgroundImageFix" result="effect1_dropShadow_81_538"/>
<feBlend mode="normal" in="SourceGraphic" in2="effect1_dropShadow_81_538" result="shape"/>
</filter>
<filter id="filter14_d_81_538" x="17.2578" y="14.5479" width="11.3945" height="10.5146" filterUnits="userSpaceOnUse" color-interpolation-filters="sRGB">
<feFlood flood-opacity="0" result="BackgroundImageFix"/>
<feColorMatrix in="SourceAlpha" type="matrix" values="0 0 0 0 0 0 0 0 0 0 0 0 0 0 0 0 0 0 127 0" result="hardAlpha"/>
<feOffset dy="4"/>
<feGaussianBlur stdDeviation="2"/>
<feComposite in2="hardAlpha" operator="out"/>
<feColorMatrix type="matrix" values="0 0 0 0 0 0 0 0 0 0 0 0 0 0 0 0 0 0 0.25 0"/>
<feBlend mode="normal" in2="BackgroundImageFix" result="effect1_dropShadow_81_538"/>
<feBlend mode="normal" in="SourceGraphic" in2="effect1_dropShadow_81_538" result="shape"/>
</filter>
<filter id="filter15_d_81_538" x="8.37891" y="4.85938" width="8.88281" height="8.875" filterUnits="userSpaceOnUse" color-interpolation-filters="sRGB">
<feFlood flood-opacity="0" result="BackgroundImageFix"/>
<feColorMatrix in="SourceAlpha" type="matrix" values="0 0 0 0 0 0 0 0 0 0 0 0 0 0 0 0 0 0 127 0" result="hardAlpha"/>
<feOffset dy="4"/>
<feGaussianBlur stdDeviation="2"/>
<feComposite in2="hardAlpha" operator="out"/>
<feColorMatrix type="matrix" values="0 0 0 0 0 0 0 0 0 0 0 0 0 0 0 0 0 0 0.25 0"/>
<feBlend mode="normal" in2="BackgroundImageFix" result="effect1_dropShadow_81_538"/>
<feBlend mode="normal" in="SourceGraphic" in2="effect1_dropShadow_81_538" result="shape"/>
</filter>
<filter id="filter16_d_81_538" x="19.2188" y="16.9717" width="8.88281" height="8.875" filterUnits="userSpaceOnUse" color-interpolation-filters="sRGB">
<feFlood flood-opacity="0" result="BackgroundImageFix"/>
<feColorMatrix in="SourceAlpha" type="matrix" values="0 0 0 0 0 0 0 0 0 0 0 0 0 0 0 0 0 0 127 0" result="hardAlpha"/>
<feOffset dy="4"/>
<feGaussianBlur stdDeviation="2"/>
<feComposite in2="hardAlpha" operator="out"/>
<feColorMatrix type="matrix" values="0 0 0 0 0 0 0 0 0 0 0 0 0 0 0 0 0 0 0.25 0"/>
<feBlend mode="normal" in2="BackgroundImageFix" result="effect1_dropShadow_81_538"/>
<feBlend mode="normal" in="SourceGraphic" in2="effect1_dropShadow_81_538" result="shape"/>
</filter>
<linearGradient id="paint0_linear_81_538" x1="17.9577" y1="20.0117" x2="27.4622" y2="6.73457" gradientUnits="userSpaceOnUse">
<stop stop-color="#797875"/>
<stop offset="1" stop-color="#C5C5C5"/>
</linearGradient>
</defs>
</svg>
