<svg width="103" height="84" viewBox="0 0 103 84" fill="none" xmlns="http://www.w3.org/2000/svg">
<g filter="url(#filter0_d_76_253)">
<ellipse cx="68.6464" cy="29.3305" rx="29.5839" ry="29.3305" fill="url(#paint0_linear_76_253)"/>
</g>
<g filter="url(#filter1_d_76_253)">
<circle cx="90" cy="14.1143" r="3" fill="#444444"/>
</g>
<g filter="url(#filter2_d_76_253)">
<path d="M74.4104 47.5168C47.8525 34.5176 55.2637 16.3663 81.3737 27.5987L90.1818 33.3142C97.3003 31.5674 99.2024 35.6704 87.0725 50.9659C74.9426 66.2613 74.4104 47.5168 74.4104 47.5168Z" fill="#444444"/>
</g>
<g filter="url(#filter3_d_76_253)">
<circle cx="46" cy="25.1143" r="3" fill="#444444"/>
</g>
<g filter="url(#filter4_d_76_253)">
<circle cx="62" cy="19.1143" r="2" fill="#444444"/>
</g>
<g filter="url(#filter5_d_76_253)">
<circle cx="90" cy="27.1143" r="2" fill="#444444"/>
</g>
<g filter="url(#filter6_d_76_253)">
<circle cx="60" cy="8.11426" r="1" fill="#444444"/>
</g>
<g filter="url(#filter7_d_76_253)">
<circle cx="83" cy="8.11426" r="1" fill="#444444"/>
</g>
<g filter="url(#filter8_d_76_253)">
<circle cx="85" cy="15.1143" r="1" fill="#444444"/>
</g>
<g filter="url(#filter9_d_76_253)">
<circle cx="91.5" cy="24.6143" r="0.5" fill="#444444"/>
</g>
<g filter="url(#filter10_d_76_253)">
<circle cx="77.5" cy="10.6143" r="4.5" fill="#444444"/>
</g>
<g filter="url(#filter11_d_76_253)">
<path d="M53.5384 17.6761C52.9639 20.8294 50.9081 16.2496 49.6226 15.2458C48.3545 14.4946 48.6555 12.9648 49.1943 12.1825C49.7332 11.4003 52.9067 10.6582 54.2 12.2584C54.708 13.3139 54.3605 15.5804 53.5384 17.6761Z" fill="#444444"/>
</g>
<g filter="url(#filter12_d_76_253)">
<path d="M73.5384 27.6761C72.9639 30.8294 70.9081 26.2496 69.6226 25.2458C68.3545 24.4946 68.6555 22.9648 69.1943 22.1825C69.7332 21.4003 72.9067 20.6582 74.2 22.2584C74.708 23.3139 74.3605 25.5804 73.5384 27.6761Z" fill="#444444"/>
</g>
<g filter="url(#filter13_d_76_253)">
<path d="M80.5384 16.6761C79.9639 19.8294 77.9081 15.2496 76.6226 14.2458C75.3545 13.4946 75.6555 11.9648 76.1943 11.1825C76.7332 10.4003 79.9067 9.65818 81.2 11.2584C81.708 12.3139 81.3605 14.5804 80.5384 16.6761Z" fill="#444444"/>
</g>
<g filter="url(#filter14_d_76_253)">
<path d="M76.9381 36.4184C74.2121 34.7324 79.2263 34.4903 80.6301 33.66C81.7924 32.7536 83.1068 33.5923 83.6383 34.3796C84.1698 35.1668 83.7023 38.3922 81.7404 39.012C80.5723 39.0997 78.589 37.9488 76.9381 36.4184Z" fill="#444444"/>
</g>
<g filter="url(#filter15_d_76_253)">
<path d="M58 12.1143C58 12.4631 57.8214 12.7702 57.5506 12.9491C57.3927 13.0535 57.2034 13.1143 57 13.1143C56.4477 13.1143 56 12.6665 56 12.1143C56 11.562 56.4477 11.1143 57 11.1143C57.0863 11.1143 57.1701 11.1252 57.25 11.1458C57.6813 11.2568 58 11.6483 58 12.1143Z" fill="#444444"/>
</g>
<g filter="url(#filter16_d_76_253)">
<path d="M81.2178 40.7401C80.8931 40.6127 80.6723 40.3343 80.6046 40.0169C80.5651 39.8318 80.5776 39.6335 80.6519 39.4441C80.8535 38.9299 81.4337 38.6765 81.9479 38.8781C82.4621 39.0797 82.7155 39.66 82.5139 40.1742C82.4823 40.2545 82.4416 40.3285 82.3933 40.3954C82.1325 40.7564 81.6516 40.9102 81.2178 40.7401Z" fill="#444444"/>
</g>
<path d="M37 27L59 22" stroke="white" stroke-opacity="0.5" stroke-width="0.2" stroke-linecap="round" stroke-dasharray="0.4 0.4"/>
<path d="M40 25L91 11" stroke="white" stroke-opacity="0.5" stroke-width="0.2" stroke-linecap="round" stroke-dasharray="0.4 0.4"/>
<path d="M42 28L93 14" stroke="white" stroke-opacity="0.5" stroke-width="0.2" stroke-linecap="round" stroke-dasharray="0.4 0.4"/>
<path d="M43 30L94 16" stroke="white" stroke-opacity="0.5" stroke-width="0.2" stroke-linecap="round" stroke-dasharray="0.4 0.4"/>
<path d="M44 32L95 18" stroke="white" stroke-opacity="0.5" stroke-width="0.2" stroke-linecap="round" stroke-dasharray="0.4 0.4"/>
<path d="M45 34L96 20" stroke="white" stroke-opacity="0.5" stroke-width="0.2" stroke-linecap="round" stroke-dasharray="0.4 0.4"/>
<path d="M40 23L89 9" stroke="white" stroke-opacity="0.5" stroke-width="0.2" stroke-linecap="round" stroke-dasharray="0.4 0.4"/>
<path d="M41 21L87 8" stroke="white" stroke-opacity="0.5" stroke-width="0.2" stroke-linecap="round" stroke-dasharray="0.4 0.4"/>
<path d="M49 24.1143L62 21.1143" stroke="white" stroke-opacity="0.5" stroke-width="0.2" stroke-linecap="round" stroke-dasharray="0.4 0.4"/>
<path d="M65.7797 20.0119C65.6543 20.5621 65.365 21.0657 64.9495 21.4516L64.9494 21.4516L64.2816 19.2924L64.2817 19.2922C64.8425 19.3762 65.3656 19.6286 65.7797 20.0119Z" fill="black"/>
<path d="M60.5523 20.3677L62.3444 19.6612L62.3445 19.6612L63.0378 19.3879C63.455 19.2588 63.8793 19.2317 64.284 19.2923L64.2839 19.2924L64.9517 21.4516L64.9518 21.4516C64.652 21.7301 64.2864 21.9473 63.8693 22.0763L63.1427 22.242L61.2645 22.6705L61.0865 22.095L60.9084 21.5192L60.7303 20.9435L60.5523 20.3677ZM63.2735 21.5667C63.6663 21.4453 63.8862 21.0284 63.7647 20.6357C63.6433 20.243 63.2264 20.0231 62.8337 20.1446C62.441 20.266 62.2211 20.6829 62.3426 21.0755C62.464 21.4683 62.8809 21.6882 63.2735 21.5667Z" fill="#1063AF"/>
<path d="M63.144 22.2434C62.8596 22.8361 62.3384 23.3133 61.6609 23.5229C61.4529 23.5871 61.2429 23.6224 61.035 23.6307L61.2658 22.6719L63.144 22.2434Z" fill="#1063AF"/>
<path d="M63.7642 20.6373C63.8858 21.03 63.6658 21.4469 63.2731 21.5682C62.8804 21.6898 62.4635 21.4698 62.3422 21.0771C62.2206 20.6844 62.4406 20.2675 62.8333 20.1462C63.226 20.0246 63.6429 20.2446 63.7642 20.6373Z" fill="#B6E2DC"/>
<path d="M61.2647 22.6722L60.6569 22.5911C60.4897 22.5689 60.3508 22.4515 60.3011 22.2904L60.2599 22.1571L61.0867 22.0966L61.2647 22.6722Z" fill="black"/>
<path d="M61.0856 22.0952L60.2589 22.1557L60.2587 22.1556L60.1358 21.7582L60.9076 21.5195L61.0856 22.0952Z" fill="black"/>
<path d="M62.3414 19.6622L60.5493 20.3687L59.8176 19.7077C59.9938 19.5972 60.1871 19.5078 60.395 19.4434C61.0726 19.2338 61.7719 19.3334 62.3414 19.6622Z" fill="#1063AF"/>
<path d="M60.9064 21.52L60.1347 21.7587L60.0118 21.3611L60.7284 20.9442L60.9064 21.52Z" fill="black"/>
<path d="M60.7289 20.9439L60.0123 21.3607L59.971 21.2273C59.9212 21.0662 59.9695 20.891 60.0948 20.7783L60.5508 20.3681L60.7289 20.9439Z" fill="black"/>
<path d="M58.8861 21.6346C58.8535 21.6174 58.8275 21.5877 58.8157 21.5497C58.7922 21.4737 58.8348 21.393 58.9108 21.3695L59.3106 21.2459C59.3866 21.2224 59.4673 21.2649 59.4908 21.3409C59.5143 21.4169 59.4718 21.4976 59.3957 21.5211L58.9959 21.6448C58.9579 21.6565 58.9188 21.6518 58.8861 21.6346Z" fill="#BB2323"/>
<path d="M58.1304 22.4874C58.0978 22.4701 58.0718 22.4405 58.06 22.4025C58.0365 22.3265 58.0791 22.2458 58.1551 22.2223L59.4878 21.8102C59.5638 21.7867 59.6444 21.8293 59.6679 21.9053C59.6915 21.9813 59.6489 22.062 59.5729 22.0855L58.2402 22.4976C58.2022 22.5093 58.163 22.5046 58.1304 22.4874Z" fill="#BB2323"/>
<path d="M58.9738 22.8471C58.9412 22.8299 58.9152 22.8002 58.9034 22.7622C58.8799 22.6862 58.9225 22.6055 58.9985 22.582L59.6647 22.376C59.7407 22.3525 59.8214 22.395 59.8449 22.471C59.8684 22.547 59.8259 22.6277 59.7499 22.6512L59.0836 22.8573C59.0456 22.869 59.0064 22.8643 58.9738 22.8471Z" fill="#BB2323"/>
<path d="M61.2013 22.8017C61.1687 22.7844 61.1426 22.7548 61.1309 22.7168L60.4187 20.414C60.3951 20.338 60.4377 20.2573 60.5137 20.2338C60.5897 20.2103 60.6704 20.2528 60.6939 20.3288L61.4061 22.6317C61.4296 22.7077 61.3871 22.7884 61.3111 22.8119C61.2731 22.8236 61.2339 22.8189 61.2013 22.8017Z" fill="#BB2323"/>
<path d="M62.6403 21.6433C62.4304 21.5325 62.2762 21.3467 62.2061 21.12C62.136 20.8933 62.1583 20.6529 62.2691 20.443C62.3798 20.2331 62.5656 20.0789 62.7924 20.0088C63.019 19.9387 63.2594 19.961 63.4693 20.0718C63.6792 20.1825 63.8334 20.3683 63.9035 20.5951C63.9736 20.8217 63.9513 21.0621 63.8405 21.272C63.7298 21.4819 63.544 21.6361 63.3173 21.7062C63.3173 21.7062 63.3173 21.7062 63.3172 21.7062C63.0906 21.7763 62.8502 21.754 62.6403 21.6433ZM63.3349 20.3266C63.1931 20.2518 63.0306 20.2367 62.8775 20.2841C62.7243 20.3315 62.5987 20.4356 62.5239 20.5774C62.4491 20.7193 62.434 20.8817 62.4814 21.0348C62.5287 21.1881 62.6329 21.3136 62.7747 21.3884C62.9165 21.4632 63.079 21.4784 63.2321 21.4309C63.2321 21.4309 63.2322 21.4309 63.2322 21.4309C63.3853 21.3836 63.5109 21.2794 63.5857 21.1376C63.6605 20.9958 63.6756 20.8334 63.6282 20.6802C63.5809 20.527 63.4767 20.4014 63.3349 20.3266Z" fill="#BB2323"/>
<path d="M59.95 21.4898C59.9269 21.4776 59.9069 21.459 59.8928 21.4348C59.8528 21.3661 59.8761 21.2779 59.9449 21.2379L60.6614 20.821C60.7302 20.781 60.8184 20.8043 60.8584 20.8731C60.8984 20.9419 60.8751 21.0301 60.8063 21.0701L60.0898 21.4869C60.0452 21.5128 59.9924 21.5122 59.95 21.4898Z" fill="#BB2323"/>
<path d="M60.0702 21.8888C60.0376 21.8716 60.0115 21.842 59.9998 21.804C59.9763 21.728 60.0188 21.6473 60.0948 21.6237L60.8666 21.3851C60.9426 21.3616 61.0233 21.4041 61.0468 21.4801C61.0703 21.5561 61.0278 21.6368 60.9517 21.6603L60.18 21.899C60.142 21.9108 60.1028 21.906 60.0702 21.8888Z" fill="#BB2323"/>
<path d="M60.1944 22.2869C60.1519 22.2644 60.1216 22.2213 60.1178 22.1699C60.112 22.0905 60.1716 22.0215 60.251 22.0157L61.0777 21.9552C61.1571 21.9494 61.2261 22.009 61.2319 22.0884C61.2377 22.1678 61.1781 22.2368 61.0988 22.2426L60.272 22.303C60.2441 22.3051 60.2174 22.299 60.1944 22.2869Z" fill="#BB2323"/>
<path d="M62.2799 19.7918C62.2505 19.7763 62.2263 19.7506 62.2132 19.7172C62.184 19.6432 62.2203 19.5595 62.2944 19.5303L62.9877 19.257C63.0617 19.2278 63.1453 19.2641 63.1745 19.3381C63.2037 19.4122 63.1674 19.4958 63.0934 19.525L62.4 19.7984C62.3594 19.8144 62.3158 19.8107 62.2799 19.7918Z" fill="#BB2323"/>
<path d="M60.4474 22.6738C60.3143 22.6036 60.2108 22.4825 60.165 22.3341L60.1254 22.206C60.1248 22.2043 60.1242 22.2025 60.1237 22.2008L59.8366 21.2725C59.7705 21.0583 59.8353 20.8233 60.0017 20.6737L60.4577 20.2635C60.4705 20.252 60.4852 20.2428 60.5012 20.2366L62.2933 19.53C62.3673 19.5009 62.451 19.5372 62.4802 19.6112C62.5093 19.6853 62.473 19.7689 62.399 19.7981L60.631 20.4951L60.1944 20.8878C60.1112 20.9627 60.0788 21.0802 60.1118 21.1873L60.3973 22.1106C60.3979 22.1123 60.3985 22.114 60.3991 22.1157L60.4403 22.2491C60.4733 22.3562 60.5664 22.4348 60.6774 22.4496L61.2595 22.5272L63.839 21.9387C63.9166 21.921 63.9938 21.9696 64.0115 22.0471C64.0292 22.1247 63.9806 22.2019 63.9031 22.2196L61.2982 22.8138C61.2815 22.8177 61.2642 22.8185 61.2472 22.8162L60.6393 22.7351C60.5712 22.7261 60.5064 22.705 60.4474 22.6738Z" fill="#BB2323"/>
<path d="M63.8028 22.2059C63.7702 22.1887 63.7442 22.1591 63.7324 22.1211C63.7089 22.0451 63.7515 21.9644 63.8275 21.9409C64.2145 21.8212 64.5601 21.6218 64.8546 21.3483C65.2294 21.0002 65.4937 20.5575 65.6224 20.0637C65.2375 19.7289 64.7693 19.5127 64.2634 19.437C63.866 19.3775 63.4682 19.408 63.0811 19.5277C63.0051 19.5512 62.9245 19.5086 62.9009 19.4326C62.8774 19.3566 62.92 19.2759 62.996 19.2524C63.4247 19.1198 63.8655 19.086 64.3061 19.152C64.8972 19.2405 65.4417 19.5021 65.8807 19.9084C65.9185 19.9434 65.9347 19.9959 65.9233 20.0461C65.7903 20.6294 65.4886 21.1527 65.0506 21.5594C64.7242 21.8626 64.3413 22.0835 63.9126 22.2161C63.8746 22.2279 63.8354 22.2231 63.8028 22.2059Z" fill="#BB2323"/>
<path d="M64.8873 21.5828C64.8547 21.5656 64.8287 21.536 64.8169 21.498L64.1491 19.3388C64.1256 19.2628 64.1682 19.1821 64.2442 19.1586C64.3202 19.1351 64.4009 19.1776 64.4244 19.2536L65.0922 21.4128C65.1157 21.4888 65.0731 21.5695 64.9971 21.593C64.9591 21.6048 64.9199 21.6 64.8873 21.5828Z" fill="#BB2323"/>
<path d="M60.4838 20.4965C60.4732 20.4909 60.4632 20.4839 60.4543 20.4759L59.7226 19.8149C59.6891 19.7846 59.6717 19.7404 59.6757 19.6954C59.6796 19.6505 59.7044 19.6099 59.7427 19.5859C59.932 19.4673 60.1376 19.3731 60.354 19.3061C61.0407 19.0937 61.7918 19.1778 62.4144 19.5374C62.4817 19.5757 62.5069 19.6608 62.4705 19.7297C62.4334 19.8001 62.3463 19.8271 62.2759 19.7899L62.2758 19.7899C62.2742 19.789 62.2726 19.7881 62.271 19.7872C61.7174 19.4675 61.0496 19.3925 60.4392 19.5813C60.3091 19.6216 60.1833 19.673 60.0635 19.7346L60.6452 20.26C60.6948 20.3029 60.7103 20.3758 60.6784 20.4362C60.6413 20.5066 60.5542 20.5336 60.4838 20.4965Z" fill="#BB2323"/>
<path d="M60.9655 23.7585C60.9488 23.7497 60.9337 23.7375 60.9214 23.7225C60.8928 23.6876 60.8821 23.6413 60.8927 23.5974L61.1234 22.6385C61.142 22.5612 61.2199 22.5135 61.2972 22.5322C61.3745 22.5507 61.4222 22.6286 61.4036 22.7059L61.2194 23.4712C61.3531 23.4544 61.4859 23.4258 61.6161 23.3856C62.2265 23.1968 62.7353 22.7579 63.0118 22.1814C63.0462 22.1097 63.1323 22.0794 63.204 22.1138C63.2758 22.1479 63.306 22.2343 63.2716 22.306C62.9604 22.9546 62.388 23.4485 61.7011 23.6609C61.4847 23.7277 61.2618 23.7661 61.0385 23.775C61.0128 23.7761 60.9877 23.7702 60.9655 23.7585Z" fill="#BB2323"/>
<g filter="url(#filter17_d_76_253)">
<path fill-rule="evenodd" clip-rule="evenodd" d="M47.7866 30.1195C43.9832 27.4018 39.314 25.8008 34.2677 25.8008C21.4842 25.8008 11.1211 36.0751 11.1211 48.7492C11.1211 49.3681 11.1458 49.9813 11.1943 50.5879C6.92417 52.7662 4 57.2057 4 62.3282C4 69.6027 9.89713 75.4998 17.1716 75.4998H84.5107C91.7851 75.4998 97.6822 69.6027 97.6822 62.3282C97.6822 56.8854 94.3809 52.2136 89.6714 50.2061C89.7156 49.7714 89.7382 49.3304 89.7382 48.8842C89.7382 41.6847 83.8514 35.8484 76.5898 35.8484C75.0756 35.8484 73.6212 36.1022 72.2675 36.5691C69.6122 31.0064 63.8991 27.1586 57.2795 27.1586C53.7484 27.1586 50.4752 28.2535 47.7866 30.1195Z" fill="url(#paint1_linear_76_253)"/>
</g>
<defs>
<filter id="filter0_d_76_253" x="35.0625" y="0" width="67.168" height="66.6611" filterUnits="userSpaceOnUse" color-interpolation-filters="sRGB">
<feFlood flood-opacity="0" result="BackgroundImageFix"/>
<feColorMatrix in="SourceAlpha" type="matrix" values="0 0 0 0 0 0 0 0 0 0 0 0 0 0 0 0 0 0 127 0" result="hardAlpha"/>
<feOffset dy="4"/>
<feGaussianBlur stdDeviation="2"/>
<feComposite in2="hardAlpha" operator="out"/>
<feColorMatrix type="matrix" values="0 0 0 0 0 0 0 0 0 0 0 0 0 0 0 0 0 0 0.25 0"/>
<feBlend mode="normal" in2="BackgroundImageFix" result="effect1_dropShadow_76_253"/>
<feBlend mode="normal" in="SourceGraphic" in2="effect1_dropShadow_76_253" result="shape"/>
</filter>
<filter id="filter1_d_76_253" x="83" y="11.1143" width="14" height="14" filterUnits="userSpaceOnUse" color-interpolation-filters="sRGB">
<feFlood flood-opacity="0" result="BackgroundImageFix"/>
<feColorMatrix in="SourceAlpha" type="matrix" values="0 0 0 0 0 0 0 0 0 0 0 0 0 0 0 0 0 0 127 0" result="hardAlpha"/>
<feOffset dy="4"/>
<feGaussianBlur stdDeviation="2"/>
<feComposite in2="hardAlpha" operator="out"/>
<feColorMatrix type="matrix" values="0 0 0 0 0 0 0 0 0 0 0 0 0 0 0 0 0 0 0.25 0"/>
<feBlend mode="normal" in2="BackgroundImageFix" result="effect1_dropShadow_76_253"/>
<feBlend mode="normal" in="SourceGraphic" in2="effect1_dropShadow_76_253" result="shape"/>
</filter>
<filter id="filter2_d_76_253" x="53.7773" y="24.084" width="46.0742" height="40.8877" filterUnits="userSpaceOnUse" color-interpolation-filters="sRGB">
<feFlood flood-opacity="0" result="BackgroundImageFix"/>
<feColorMatrix in="SourceAlpha" type="matrix" values="0 0 0 0 0 0 0 0 0 0 0 0 0 0 0 0 0 0 127 0" result="hardAlpha"/>
<feOffset dy="4"/>
<feGaussianBlur stdDeviation="2"/>
<feComposite in2="hardAlpha" operator="out"/>
<feColorMatrix type="matrix" values="0 0 0 0 0 0 0 0 0 0 0 0 0 0 0 0 0 0 0.25 0"/>
<feBlend mode="normal" in2="BackgroundImageFix" result="effect1_dropShadow_76_253"/>
<feBlend mode="normal" in="SourceGraphic" in2="effect1_dropShadow_76_253" result="shape"/>
</filter>
<filter id="filter3_d_76_253" x="39" y="22.1143" width="14" height="14" filterUnits="userSpaceOnUse" color-interpolation-filters="sRGB">
<feFlood flood-opacity="0" result="BackgroundImageFix"/>
<feColorMatrix in="SourceAlpha" type="matrix" values="0 0 0 0 0 0 0 0 0 0 0 0 0 0 0 0 0 0 127 0" result="hardAlpha"/>
<feOffset dy="4"/>
<feGaussianBlur stdDeviation="2"/>
<feComposite in2="hardAlpha" operator="out"/>
<feColorMatrix type="matrix" values="0 0 0 0 0 0 0 0 0 0 0 0 0 0 0 0 0 0 0.25 0"/>
<feBlend mode="normal" in2="BackgroundImageFix" result="effect1_dropShadow_76_253"/>
<feBlend mode="normal" in="SourceGraphic" in2="effect1_dropShadow_76_253" result="shape"/>
</filter>
<filter id="filter4_d_76_253" x="56" y="17.1143" width="12" height="12" filterUnits="userSpaceOnUse" color-interpolation-filters="sRGB">
<feFlood flood-opacity="0" result="BackgroundImageFix"/>
<feColorMatrix in="SourceAlpha" type="matrix" values="0 0 0 0 0 0 0 0 0 0 0 0 0 0 0 0 0 0 127 0" result="hardAlpha"/>
<feOffset dy="4"/>
<feGaussianBlur stdDeviation="2"/>
<feComposite in2="hardAlpha" operator="out"/>
<feColorMatrix type="matrix" values="0 0 0 0 0 0 0 0 0 0 0 0 0 0 0 0 0 0 0.25 0"/>
<feBlend mode="normal" in2="BackgroundImageFix" result="effect1_dropShadow_76_253"/>
<feBlend mode="normal" in="SourceGraphic" in2="effect1_dropShadow_76_253" result="shape"/>
</filter>
<filter id="filter5_d_76_253" x="84" y="25.1143" width="12" height="12" filterUnits="userSpaceOnUse" color-interpolation-filters="sRGB">
<feFlood flood-opacity="0" result="BackgroundImageFix"/>
<feColorMatrix in="SourceAlpha" type="matrix" values="0 0 0 0 0 0 0 0 0 0 0 0 0 0 0 0 0 0 127 0" result="hardAlpha"/>
<feOffset dy="4"/>
<feGaussianBlur stdDeviation="2"/>
<feComposite in2="hardAlpha" operator="out"/>
<feColorMatrix type="matrix" values="0 0 0 0 0 0 0 0 0 0 0 0 0 0 0 0 0 0 0.25 0"/>
<feBlend mode="normal" in2="BackgroundImageFix" result="effect1_dropShadow_76_253"/>
<feBlend mode="normal" in="SourceGraphic" in2="effect1_dropShadow_76_253" result="shape"/>
</filter>
<filter id="filter6_d_76_253" x="55" y="7.11426" width="10" height="10" filterUnits="userSpaceOnUse" color-interpolation-filters="sRGB">
<feFlood flood-opacity="0" result="BackgroundImageFix"/>
<feColorMatrix in="SourceAlpha" type="matrix" values="0 0 0 0 0 0 0 0 0 0 0 0 0 0 0 0 0 0 127 0" result="hardAlpha"/>
<feOffset dy="4"/>
<feGaussianBlur stdDeviation="2"/>
<feComposite in2="hardAlpha" operator="out"/>
<feColorMatrix type="matrix" values="0 0 0 0 0 0 0 0 0 0 0 0 0 0 0 0 0 0 0.25 0"/>
<feBlend mode="normal" in2="BackgroundImageFix" result="effect1_dropShadow_76_253"/>
<feBlend mode="normal" in="SourceGraphic" in2="effect1_dropShadow_76_253" result="shape"/>
</filter>
<filter id="filter7_d_76_253" x="78" y="7.11426" width="10" height="10" filterUnits="userSpaceOnUse" color-interpolation-filters="sRGB">
<feFlood flood-opacity="0" result="BackgroundImageFix"/>
<feColorMatrix in="SourceAlpha" type="matrix" values="0 0 0 0 0 0 0 0 0 0 0 0 0 0 0 0 0 0 127 0" result="hardAlpha"/>
<feOffset dy="4"/>
<feGaussianBlur stdDeviation="2"/>
<feComposite in2="hardAlpha" operator="out"/>
<feColorMatrix type="matrix" values="0 0 0 0 0 0 0 0 0 0 0 0 0 0 0 0 0 0 0.25 0"/>
<feBlend mode="normal" in2="BackgroundImageFix" result="effect1_dropShadow_76_253"/>
<feBlend mode="normal" in="SourceGraphic" in2="effect1_dropShadow_76_253" result="shape"/>
</filter>
<filter id="filter8_d_76_253" x="80" y="14.1143" width="10" height="10" filterUnits="userSpaceOnUse" color-interpolation-filters="sRGB">
<feFlood flood-opacity="0" result="BackgroundImageFix"/>
<feColorMatrix in="SourceAlpha" type="matrix" values="0 0 0 0 0 0 0 0 0 0 0 0 0 0 0 0 0 0 127 0" result="hardAlpha"/>
<feOffset dy="4"/>
<feGaussianBlur stdDeviation="2"/>
<feComposite in2="hardAlpha" operator="out"/>
<feColorMatrix type="matrix" values="0 0 0 0 0 0 0 0 0 0 0 0 0 0 0 0 0 0 0.25 0"/>
<feBlend mode="normal" in2="BackgroundImageFix" result="effect1_dropShadow_76_253"/>
<feBlend mode="normal" in="SourceGraphic" in2="effect1_dropShadow_76_253" result="shape"/>
</filter>
<filter id="filter9_d_76_253" x="87" y="24.1143" width="9" height="9" filterUnits="userSpaceOnUse" color-interpolation-filters="sRGB">
<feFlood flood-opacity="0" result="BackgroundImageFix"/>
<feColorMatrix in="SourceAlpha" type="matrix" values="0 0 0 0 0 0 0 0 0 0 0 0 0 0 0 0 0 0 127 0" result="hardAlpha"/>
<feOffset dy="4"/>
<feGaussianBlur stdDeviation="2"/>
<feComposite in2="hardAlpha" operator="out"/>
<feColorMatrix type="matrix" values="0 0 0 0 0 0 0 0 0 0 0 0 0 0 0 0 0 0 0.25 0"/>
<feBlend mode="normal" in2="BackgroundImageFix" result="effect1_dropShadow_76_253"/>
<feBlend mode="normal" in="SourceGraphic" in2="effect1_dropShadow_76_253" result="shape"/>
</filter>
<filter id="filter10_d_76_253" x="69" y="6.11426" width="17" height="17" filterUnits="userSpaceOnUse" color-interpolation-filters="sRGB">
<feFlood flood-opacity="0" result="BackgroundImageFix"/>
<feColorMatrix in="SourceAlpha" type="matrix" values="0 0 0 0 0 0 0 0 0 0 0 0 0 0 0 0 0 0 127 0" result="hardAlpha"/>
<feOffset dy="4"/>
<feGaussianBlur stdDeviation="2"/>
<feComposite in2="hardAlpha" operator="out"/>
<feColorMatrix type="matrix" values="0 0 0 0 0 0 0 0 0 0 0 0 0 0 0 0 0 0 0.25 0"/>
<feBlend mode="normal" in2="BackgroundImageFix" result="effect1_dropShadow_76_253"/>
<feBlend mode="normal" in="SourceGraphic" in2="effect1_dropShadow_76_253" result="shape"/>
</filter>
<filter id="filter11_d_76_253" x="44.7305" y="11.3105" width="13.707" height="15.457" filterUnits="userSpaceOnUse" color-interpolation-filters="sRGB">
<feFlood flood-opacity="0" result="BackgroundImageFix"/>
<feColorMatrix in="SourceAlpha" type="matrix" values="0 0 0 0 0 0 0 0 0 0 0 0 0 0 0 0 0 0 127 0" result="hardAlpha"/>
<feOffset dy="4"/>
<feGaussianBlur stdDeviation="2"/>
<feComposite in2="hardAlpha" operator="out"/>
<feColorMatrix type="matrix" values="0 0 0 0 0 0 0 0 0 0 0 0 0 0 0 0 0 0 0.25 0"/>
<feBlend mode="normal" in2="BackgroundImageFix" result="effect1_dropShadow_76_253"/>
<feBlend mode="normal" in="SourceGraphic" in2="effect1_dropShadow_76_253" result="shape"/>
</filter>
<filter id="filter12_d_76_253" x="64.7305" y="21.3105" width="13.707" height="15.457" filterUnits="userSpaceOnUse" color-interpolation-filters="sRGB">
<feFlood flood-opacity="0" result="BackgroundImageFix"/>
<feColorMatrix in="SourceAlpha" type="matrix" values="0 0 0 0 0 0 0 0 0 0 0 0 0 0 0 0 0 0 127 0" result="hardAlpha"/>
<feOffset dy="4"/>
<feGaussianBlur stdDeviation="2"/>
<feComposite in2="hardAlpha" operator="out"/>
<feColorMatrix type="matrix" values="0 0 0 0 0 0 0 0 0 0 0 0 0 0 0 0 0 0 0.25 0"/>
<feBlend mode="normal" in2="BackgroundImageFix" result="effect1_dropShadow_76_253"/>
<feBlend mode="normal" in="SourceGraphic" in2="effect1_dropShadow_76_253" result="shape"/>
</filter>
<filter id="filter13_d_76_253" x="71.7305" y="10.3105" width="13.707" height="15.457" filterUnits="userSpaceOnUse" color-interpolation-filters="sRGB">
<feFlood flood-opacity="0" result="BackgroundImageFix"/>
<feColorMatrix in="SourceAlpha" type="matrix" values="0 0 0 0 0 0 0 0 0 0 0 0 0 0 0 0 0 0 127 0" result="hardAlpha"/>
<feOffset dy="4"/>
<feGaussianBlur stdDeviation="2"/>
<feComposite in2="hardAlpha" operator="out"/>
<feColorMatrix type="matrix" values="0 0 0 0 0 0 0 0 0 0 0 0 0 0 0 0 0 0 0.25 0"/>
<feBlend mode="normal" in2="BackgroundImageFix" result="effect1_dropShadow_76_253"/>
<feBlend mode="normal" in="SourceGraphic" in2="effect1_dropShadow_76_253" result="shape"/>
</filter>
<filter id="filter14_d_76_253" x="72.1406" y="33.2666" width="15.7031" height="13.75" filterUnits="userSpaceOnUse" color-interpolation-filters="sRGB">
<feFlood flood-opacity="0" result="BackgroundImageFix"/>
<feColorMatrix in="SourceAlpha" type="matrix" values="0 0 0 0 0 0 0 0 0 0 0 0 0 0 0 0 0 0 127 0" result="hardAlpha"/>
<feOffset dy="4"/>
<feGaussianBlur stdDeviation="2"/>
<feComposite in2="hardAlpha" operator="out"/>
<feColorMatrix type="matrix" values="0 0 0 0 0 0 0 0 0 0 0 0 0 0 0 0 0 0 0.25 0"/>
<feBlend mode="normal" in2="BackgroundImageFix" result="effect1_dropShadow_76_253"/>
<feBlend mode="normal" in="SourceGraphic" in2="effect1_dropShadow_76_253" result="shape"/>
</filter>
<filter id="filter15_d_76_253" x="52" y="11.1143" width="10" height="10" filterUnits="userSpaceOnUse" color-interpolation-filters="sRGB">
<feFlood flood-opacity="0" result="BackgroundImageFix"/>
<feColorMatrix in="SourceAlpha" type="matrix" values="0 0 0 0 0 0 0 0 0 0 0 0 0 0 0 0 0 0 127 0" result="hardAlpha"/>
<feOffset dy="4"/>
<feGaussianBlur stdDeviation="2"/>
<feComposite in2="hardAlpha" operator="out"/>
<feColorMatrix type="matrix" values="0 0 0 0 0 0 0 0 0 0 0 0 0 0 0 0 0 0 0.25 0"/>
<feBlend mode="normal" in2="BackgroundImageFix" result="effect1_dropShadow_76_253"/>
<feBlend mode="normal" in="SourceGraphic" in2="effect1_dropShadow_76_253" result="shape"/>
</filter>
<filter id="filter16_d_76_253" x="76.582" y="38.8086" width="10" height="10.001" filterUnits="userSpaceOnUse" color-interpolation-filters="sRGB">
<feFlood flood-opacity="0" result="BackgroundImageFix"/>
<feColorMatrix in="SourceAlpha" type="matrix" values="0 0 0 0 0 0 0 0 0 0 0 0 0 0 0 0 0 0 127 0" result="hardAlpha"/>
<feOffset dy="4"/>
<feGaussianBlur stdDeviation="2"/>
<feComposite in2="hardAlpha" operator="out"/>
<feColorMatrix type="matrix" values="0 0 0 0 0 0 0 0 0 0 0 0 0 0 0 0 0 0 0.25 0"/>
<feBlend mode="normal" in2="BackgroundImageFix" result="effect1_dropShadow_76_253"/>
<feBlend mode="normal" in="SourceGraphic" in2="effect1_dropShadow_76_253" result="shape"/>
</filter>
<filter id="filter17_d_76_253" x="0" y="25.8008" width="101.684" height="57.6992" filterUnits="userSpaceOnUse" color-interpolation-filters="sRGB">
<feFlood flood-opacity="0" result="BackgroundImageFix"/>
<feColorMatrix in="SourceAlpha" type="matrix" values="0 0 0 0 0 0 0 0 0 0 0 0 0 0 0 0 0 0 127 0" result="hardAlpha"/>
<feOffset dy="4"/>
<feGaussianBlur stdDeviation="2"/>
<feComposite in2="hardAlpha" operator="out"/>
<feColorMatrix type="matrix" values="0 0 0 0 0 0 0 0 0 0 0 0 0 0 0 0 0 0 0.25 0"/>
<feBlend mode="normal" in2="BackgroundImageFix" result="effect1_dropShadow_76_253"/>
<feBlend mode="normal" in="SourceGraphic" in2="effect1_dropShadow_76_253" result="shape"/>
</filter>
<linearGradient id="paint0_linear_76_253" x1="68.6464" y1="45.761" x2="90.4372" y2="15.569" gradientUnits="userSpaceOnUse">
<stop stop-color="#797875"/>
<stop offset="1" stop-color="#C5C5C5"/>
</linearGradient>
<linearGradient id="paint1_linear_76_253" x1="51" y1="17.6143" x2="48.5" y2="91.1143" gradientUnits="userSpaceOnUse">
<stop stop-color="#0095DA"/>
<stop offset="0.0001" stop-color="white"/>
<stop offset="0.84266" stop-color="#27263F"/>
</linearGradient>
</defs>
</svg>
