<svg width="9" height="9" viewBox="0 0 9 9" fill="none" xmlns="http://www.w3.org/2000/svg">
<path d="M8.49842 3.45311C8.49842 5.36021 6.80585 6.90622 4.71796 6.90622C2.63007 6.90622 0.9375 5.36021 0.9375 3.45311C0.9375 1.54601 2.63007 0 4.71796 0C6.80585 0 8.49842 1.54601 8.49842 3.45311ZM1.37762 3.45311C1.37762 5.13819 2.87314 6.50421 4.71796 6.50421C6.56278 6.50421 8.0583 5.13819 8.0583 3.45311C8.0583 1.76804 6.56278 0.402012 4.71796 0.402012C2.87314 0.402012 1.37762 1.76804 1.37762 3.45311Z" fill="#D9D9D9"/>
<path d="M7.03493 5.92612L6.31706 6.41588L8.15229 8.44657L8.87683 7.82696L7.03493 5.92612Z" fill="#D9D9D9"/>
</svg>
