<svg width="26" height="28" viewBox="0 0 26 28" fill="none" xmlns="http://www.w3.org/2000/svg">
<g filter="url(#filter0_d_80_211)">
<ellipse cx="13.0091" cy="13" rx="7.00524" ry="7" fill="url(#paint0_linear_80_211)"/>
</g>
<path d="M24.9917 12.9735C24.9917 19.5474 19.6251 24.8825 12.9978 24.8825C6.37055 24.8825 1.00391 19.5474 1.00391 12.9735C1.00391 6.3995 6.37055 1.06445 12.9978 1.06445C19.6251 1.06445 24.9917 6.3995 24.9917 12.9735Z" stroke="url(#paint1_linear_80_211)"/>
<path d="M22.2061 13.0048C22.2061 18.2255 18.0718 22.4382 12.9956 22.4382C7.91946 22.4382 3.78516 18.2255 3.78516 13.0048C3.78516 7.78403 7.91946 3.57129 12.9956 3.57129C18.0718 3.57129 22.2061 7.78403 22.2061 13.0048Z" stroke="url(#paint2_linear_80_211)"/>
<path d="M25.5 12.973C25.5 19.8607 19.9045 25.4461 13 25.4461C6.09546 25.4461 0.5 19.8607 0.5 12.973C0.5 6.08535 6.09546 0.5 13 0.5C19.9045 0.5 25.5 6.08535 25.5 12.973Z" stroke="url(#paint3_linear_80_211)"/>
<path d="M22.5223 13.005C22.5223 18.4733 18.2412 22.8771 12.9955 22.8771C7.74986 22.8771 3.46875 18.4733 3.46875 13.005C3.46875 7.53664 7.74986 3.13281 12.9955 3.13281C18.2412 3.13281 22.5223 7.53664 22.5223 13.005Z" stroke="url(#paint4_linear_80_211)"/>
<path d="M23.3522 13.0042C23.3522 18.6944 18.6948 23.3151 12.9398 23.3151C7.18472 23.3151 2.52734 18.6944 2.52734 13.0042C2.52734 7.31409 7.18472 2.69336 12.9398 2.69336C18.6948 2.69336 23.3522 7.31409 23.3522 13.0042Z" stroke="url(#paint5_linear_80_211)"/>
<path d="M20.8179 13.0356C20.8179 17.5908 17.2835 21.247 12.9676 21.247C8.65165 21.247 5.11719 17.5908 5.11719 13.0356C5.11719 8.48042 8.65165 4.82422 12.9676 4.82422C17.2835 4.82422 20.8179 8.48042 20.8179 13.0356Z" stroke="url(#paint6_linear_80_211)"/>
<path d="M24.3601 13.0045C24.3601 19.1384 19.2701 24.1301 12.9672 24.1301C6.66424 24.1301 1.57422 19.1384 1.57422 13.0045C1.57422 6.87066 6.66424 1.87891 12.9672 1.87891C19.2701 1.87891 24.3601 6.87066 24.3601 13.0045Z" stroke="url(#paint7_linear_80_211)"/>
<path d="M21.6385 13.004C21.6385 17.8747 17.7487 21.8108 12.9657 21.8108C8.1827 21.8108 4.29297 17.8747 4.29297 13.004C4.29297 8.13332 8.1827 4.19727 12.9657 4.19727C17.7487 4.19727 21.6385 8.13332 21.6385 13.004Z" stroke="url(#paint8_linear_80_211)"/>
<path d="M23.3522 13.0042C23.3522 18.6944 18.6948 23.3151 12.9398 23.3151C7.18472 23.3151 2.52734 18.6944 2.52734 13.0042C2.52734 7.31409 7.18472 2.69336 12.9398 2.69336C18.6948 2.69336 23.3522 7.31409 23.3522 13.0042Z" stroke="url(#paint9_linear_80_211)"/>
<path d="M20.8179 13.0356C20.8179 17.5908 17.2835 21.247 12.9676 21.247C8.65165 21.247 5.11719 17.5908 5.11719 13.0356C5.11719 8.48042 8.65165 4.82422 12.9676 4.82422C17.2835 4.82422 20.8179 8.48042 20.8179 13.0356Z" stroke="url(#paint10_linear_80_211)"/>
<path d="M24.3601 13.0045C24.3601 19.1384 19.2701 24.1301 12.9672 24.1301C6.66424 24.1301 1.57422 19.1384 1.57422 13.0045C1.57422 6.87066 6.66424 1.87891 12.9672 1.87891C19.2701 1.87891 24.3601 6.87066 24.3601 13.0045Z" stroke="url(#paint11_linear_80_211)"/>
<path d="M21.6385 13.004C21.6385 17.8747 17.7487 21.8108 12.9657 21.8108C8.1827 21.8108 4.29297 17.8747 4.29297 13.004C4.29297 8.13332 8.1827 4.19727 12.9657 4.19727C17.7487 4.19727 21.6385 8.13332 21.6385 13.004Z" stroke="url(#paint12_linear_80_211)"/>
<path d="M24.6123 13.0359C24.6123 19.401 19.4026 24.5689 12.9663 24.5689C6.52998 24.5689 1.32031 19.401 1.32031 13.0359C1.32031 6.67081 6.52998 1.50293 12.9663 1.50293C19.4026 1.50293 24.6123 6.67081 24.6123 13.0359Z" stroke="url(#paint13_linear_80_211)"/>
<path d="M21.8305 13.0049C21.8305 18.0546 17.8499 22.125 12.968 22.125C8.08606 22.125 4.10547 18.0546 4.10547 13.0049C4.10547 7.9551 8.08606 3.88477 12.968 3.88477C17.8499 3.88477 21.8305 7.9551 21.8305 13.0049Z" stroke="url(#paint14_linear_80_211)"/>
<path d="M22.9712 13.0363C22.9712 18.5015 18.4979 22.9398 12.97 22.9398C7.44203 22.9398 2.96875 18.5015 2.96875 13.0363C2.96875 7.57116 7.44203 3.13281 12.97 3.13281C18.4979 3.13281 22.9712 7.57116 22.9712 13.0363Z" stroke="url(#paint15_linear_80_211)"/>
<path d="M20.565 13.0044C20.565 17.3664 17.1606 20.871 12.9993 20.871C8.83798 20.871 5.43359 17.3664 5.43359 13.0044C5.43359 8.6423 8.83798 5.1377 12.9993 5.1377C17.1606 5.1377 20.565 8.6423 20.565 13.0044Z" stroke="url(#paint16_linear_80_211)"/>
<path d="M23.9205 13.0356C23.9205 18.9443 19.0148 23.7539 12.9388 23.7539C6.86272 23.7539 1.95703 18.9443 1.95703 13.0356C1.95703 7.12698 6.86272 2.31738 12.9388 2.31738C19.0148 2.31738 23.9205 7.12698 23.9205 13.0356Z" stroke="url(#paint17_linear_80_211)"/>
<path d="M21.3262 13.0041C21.3262 17.7022 17.5777 21.4975 12.9697 21.4975C8.3618 21.4975 4.61328 17.7022 4.61328 13.0041C4.61328 8.3061 8.3618 4.51074 12.9697 4.51074C17.5777 4.51074 21.3262 8.3061 21.3262 13.0041Z" stroke="url(#paint18_linear_80_211)"/>
<path d="M22.9712 13.0363C22.9712 18.5015 18.4979 22.9398 12.97 22.9398C7.44203 22.9398 2.96875 18.5015 2.96875 13.0363C2.96875 7.57116 7.44203 3.13281 12.97 3.13281C18.4979 3.13281 22.9712 7.57116 22.9712 13.0363Z" stroke="url(#paint19_linear_80_211)"/>
<path d="M20.565 13.0044C20.565 17.3664 17.1606 20.871 12.9993 20.871C8.83798 20.871 5.43359 17.3664 5.43359 13.0044C5.43359 8.6423 8.83798 5.1377 12.9993 5.1377C17.1606 5.1377 20.565 8.6423 20.565 13.0044Z" stroke="url(#paint20_linear_80_211)"/>
<path d="M23.9205 13.0356C23.9205 18.9443 19.0148 23.7539 12.9388 23.7539C6.86272 23.7539 1.95703 18.9443 1.95703 13.0356C1.95703 7.12698 6.86272 2.31738 12.9388 2.31738C19.0148 2.31738 23.9205 7.12698 23.9205 13.0356Z" stroke="url(#paint21_linear_80_211)"/>
<path d="M21.3262 13.0041C21.3262 17.7022 17.5777 21.4975 12.9697 21.4975C8.3618 21.4975 4.61328 17.7022 4.61328 13.0041C4.61328 8.3061 8.3618 4.51074 12.9697 4.51074C17.5777 4.51074 21.3262 8.3061 21.3262 13.0041Z" stroke="url(#paint22_linear_80_211)"/>
<defs>
<filter id="filter0_d_80_211" x="2.00391" y="6" width="22.0117" height="22" filterUnits="userSpaceOnUse" color-interpolation-filters="sRGB">
<feFlood flood-opacity="0" result="BackgroundImageFix"/>
<feColorMatrix in="SourceAlpha" type="matrix" values="0 0 0 0 0 0 0 0 0 0 0 0 0 0 0 0 0 0 127 0" result="hardAlpha"/>
<feOffset dy="4"/>
<feGaussianBlur stdDeviation="2"/>
<feComposite in2="hardAlpha" operator="out"/>
<feColorMatrix type="matrix" values="0 0 0 0 0 0 0 0 0 0 0 0 0 0 0 0 0 0 0.25 0"/>
<feBlend mode="normal" in2="BackgroundImageFix" result="effect1_dropShadow_80_211"/>
<feBlend mode="normal" in="SourceGraphic" in2="effect1_dropShadow_80_211" result="shape"/>
</filter>
<linearGradient id="paint0_linear_80_211" x1="13.0091" y1="16.9213" x2="14.0778" y2="8.20351" gradientUnits="userSpaceOnUse">
<stop offset="0.229717" stop-color="#FF8A00"/>
<stop offset="1" stop-color="#F4CF6E"/>
</linearGradient>
<linearGradient id="paint1_linear_80_211" x1="12.9978" y1="0.564453" x2="12.9978" y2="25.3825" gradientUnits="userSpaceOnUse">
<stop stop-color="#F4CF6E" stop-opacity="0.08"/>
<stop offset="1" stop-color="#FF8A00" stop-opacity="0"/>
</linearGradient>
<linearGradient id="paint2_linear_80_211" x1="12.9956" y1="3.07129" x2="12.9956" y2="22.9382" gradientUnits="userSpaceOnUse">
<stop stop-color="#F4CF6E" stop-opacity="0.08"/>
<stop offset="1" stop-color="#FF8A00" stop-opacity="0"/>
</linearGradient>
<linearGradient id="paint3_linear_80_211" x1="13" y1="0" x2="13" y2="25.9461" gradientUnits="userSpaceOnUse">
<stop stop-color="#F4CF6E" stop-opacity="0.08"/>
<stop offset="1" stop-color="#FF8A00" stop-opacity="0"/>
</linearGradient>
<linearGradient id="paint4_linear_80_211" x1="12.9955" y1="2.63281" x2="12.9955" y2="23.3771" gradientUnits="userSpaceOnUse">
<stop stop-color="#F4CF6E" stop-opacity="0.08"/>
<stop offset="1" stop-color="#FF8A00" stop-opacity="0"/>
</linearGradient>
<linearGradient id="paint5_linear_80_211" x1="12.9398" y1="2.19336" x2="12.9398" y2="23.8151" gradientUnits="userSpaceOnUse">
<stop stop-color="#F4CF6E" stop-opacity="0.08"/>
<stop offset="1" stop-color="#FF8A00" stop-opacity="0"/>
</linearGradient>
<linearGradient id="paint6_linear_80_211" x1="12.9676" y1="4.32422" x2="12.9676" y2="21.747" gradientUnits="userSpaceOnUse">
<stop stop-color="#F4CF6E" stop-opacity="0.08"/>
<stop offset="1" stop-color="#FF8A00" stop-opacity="0"/>
</linearGradient>
<linearGradient id="paint7_linear_80_211" x1="12.9672" y1="1.37891" x2="12.9672" y2="24.6301" gradientUnits="userSpaceOnUse">
<stop stop-color="#F4CF6E" stop-opacity="0.08"/>
<stop offset="1" stop-color="#FF8A00" stop-opacity="0"/>
</linearGradient>
<linearGradient id="paint8_linear_80_211" x1="12.9657" y1="3.69727" x2="12.9657" y2="22.3108" gradientUnits="userSpaceOnUse">
<stop stop-color="#F4CF6E" stop-opacity="0.08"/>
<stop offset="1" stop-color="#FF8A00" stop-opacity="0"/>
</linearGradient>
<linearGradient id="paint9_linear_80_211" x1="12.9398" y1="2.19336" x2="12.9398" y2="23.8151" gradientUnits="userSpaceOnUse">
<stop stop-color="#F4CF6E" stop-opacity="0.08"/>
<stop offset="1" stop-color="#FF8A00" stop-opacity="0"/>
</linearGradient>
<linearGradient id="paint10_linear_80_211" x1="12.9676" y1="4.32422" x2="12.9676" y2="21.747" gradientUnits="userSpaceOnUse">
<stop stop-color="#F4CF6E" stop-opacity="0.08"/>
<stop offset="1" stop-color="#FF8A00" stop-opacity="0"/>
</linearGradient>
<linearGradient id="paint11_linear_80_211" x1="12.9672" y1="1.37891" x2="12.9672" y2="24.6301" gradientUnits="userSpaceOnUse">
<stop stop-color="#F4CF6E" stop-opacity="0.08"/>
<stop offset="1" stop-color="#FF8A00" stop-opacity="0"/>
</linearGradient>
<linearGradient id="paint12_linear_80_211" x1="12.9657" y1="3.69727" x2="12.9657" y2="22.3108" gradientUnits="userSpaceOnUse">
<stop stop-color="#F4CF6E" stop-opacity="0.08"/>
<stop offset="1" stop-color="#FF8A00" stop-opacity="0"/>
</linearGradient>
<linearGradient id="paint13_linear_80_211" x1="12.9663" y1="1.00293" x2="12.9663" y2="25.0689" gradientUnits="userSpaceOnUse">
<stop stop-color="#F4CF6E" stop-opacity="0.08"/>
<stop offset="1" stop-color="#FF8A00" stop-opacity="0"/>
</linearGradient>
<linearGradient id="paint14_linear_80_211" x1="12.968" y1="3.38477" x2="12.968" y2="22.625" gradientUnits="userSpaceOnUse">
<stop stop-color="#F4CF6E" stop-opacity="0.08"/>
<stop offset="1" stop-color="#FF8A00" stop-opacity="0"/>
</linearGradient>
<linearGradient id="paint15_linear_80_211" x1="12.97" y1="2.63281" x2="12.97" y2="23.4398" gradientUnits="userSpaceOnUse">
<stop stop-color="#F4CF6E" stop-opacity="0.08"/>
<stop offset="1" stop-color="#FF8A00" stop-opacity="0"/>
</linearGradient>
<linearGradient id="paint16_linear_80_211" x1="12.9993" y1="4.6377" x2="12.9993" y2="21.371" gradientUnits="userSpaceOnUse">
<stop stop-color="#F4CF6E" stop-opacity="0.08"/>
<stop offset="1" stop-color="#FF8A00" stop-opacity="0"/>
</linearGradient>
<linearGradient id="paint17_linear_80_211" x1="12.9388" y1="1.81738" x2="12.9388" y2="24.2539" gradientUnits="userSpaceOnUse">
<stop stop-color="#F4CF6E" stop-opacity="0.08"/>
<stop offset="1" stop-color="#FF8A00" stop-opacity="0"/>
</linearGradient>
<linearGradient id="paint18_linear_80_211" x1="12.9697" y1="4.01074" x2="12.9697" y2="21.9975" gradientUnits="userSpaceOnUse">
<stop stop-color="#F4CF6E" stop-opacity="0.08"/>
<stop offset="1" stop-color="#FF8A00" stop-opacity="0"/>
</linearGradient>
<linearGradient id="paint19_linear_80_211" x1="12.97" y1="2.63281" x2="12.97" y2="23.4398" gradientUnits="userSpaceOnUse">
<stop stop-color="#F4CF6E" stop-opacity="0.08"/>
<stop offset="1" stop-color="#FF8A00" stop-opacity="0"/>
</linearGradient>
<linearGradient id="paint20_linear_80_211" x1="12.9993" y1="4.6377" x2="12.9993" y2="21.371" gradientUnits="userSpaceOnUse">
<stop stop-color="#F4CF6E" stop-opacity="0.08"/>
<stop offset="1" stop-color="#FF8A00" stop-opacity="0"/>
</linearGradient>
<linearGradient id="paint21_linear_80_211" x1="12.9388" y1="1.81738" x2="12.9388" y2="24.2539" gradientUnits="userSpaceOnUse">
<stop stop-color="#F4CF6E" stop-opacity="0.08"/>
<stop offset="1" stop-color="#FF8A00" stop-opacity="0"/>
</linearGradient>
<linearGradient id="paint22_linear_80_211" x1="12.9697" y1="4.01074" x2="12.9697" y2="21.9975" gradientUnits="userSpaceOnUse">
<stop stop-color="#F4CF6E" stop-opacity="0.08"/>
<stop offset="1" stop-color="#FF8A00" stop-opacity="0"/>
</linearGradient>
</defs>
</svg>
